<svg xmlns="http://www.w3.org/2000/svg" xmlns:xlink="http://www.w3.org/1999/xlink" id="Layer_1" data-name="Layer 1" viewBox="0 0 300 300"><defs><style>.cls-1{fill:#91f086;}.cls-2{fill:#48bf53;}.cls-3{fill:#11823b;}.cls-4{fill:#fff;}.cls-5{opacity:0.1;}</style></defs><title>1</title><rect class="cls-1" x="109.24" y="62.36" width="103.2" height="138.24"></rect><path class="cls-2" d="M156.64,157.64s-33.12-38.88-20.16-54,24.36-14,24.36-14,28.56,10.8,19.56,31.32S156.64,157.64,156.64,157.64Z"></path><path class="cls-3" d="M109.24,62.36V200.6S81.4,196,77.8,221V76.28S86.68,61.4,109.24,62.36Z"></path><path class="cls-4" d="M97.79,200.6H213.71a0,0,0,0,1,0,0V238a0,0,0,0,1,0,0H97.79a18.72,18.72,0,0,1-18.72-18.72v0A18.72,18.72,0,0,1,97.79,200.6Z"></path><path class="cls-5" d="M212.44,203v3.46H96.52c-9.86,0-17.93,9.15-18.66,20.78,0-.58-.06-1.15-.06-1.73,0-12.43,8.38-22.51,18.72-22.51Z"></path><circle class="cls-4" cx="157.81" cy="113" r="11.43"></circle><image width="512" height="512" transform="translate(54 54) scale(0.38)"></image></svg>