<svg xmlns="http://www.w3.org/2000/svg" viewBox="0 0 300 300"><defs><style>.cls-1{isolation:isolate;}.cls-2{fill:#91f086;}.cls-3{fill:#9e9e9e;}.cls-4{fill:#11823b;}.cls-5{fill:#fff;}.cls-6{mix-blend-mode:multiply;}.cls-7{opacity:0.1;}</style></defs><title>1</title><g class="cls-1"><g id="Layer_1" data-name="Layer 1"><rect class="cls-2" x="63.12" y="107.18" width="173.95" height="129.79"></rect><rect class="cls-2" x="103.48" y="78.53" width="93.09" height="129.79"></rect><rect class="cls-3" x="134.24" y="192.56" width="31.41" height="41.04"></rect><rect class="cls-4" x="121.64" y="62.99" width="55.09" height="15.54"></rect><rect class="cls-5" x="76.28" y="134.42" width="10.08" height="10.08"></rect><rect class="cls-5" x="76.28" y="167.06" width="10.08" height="10.08"></rect><rect class="cls-5" x="76.28" y="199.71" width="10.08" height="10.08"></rect><rect class="cls-5" x="213.7" y="134.42" width="10.08" height="10.08"></rect><rect class="cls-5" x="213.7" y="167.06" width="10.08" height="10.08"></rect><rect class="cls-5" x="213.7" y="199.71" width="10.08" height="10.08"></rect><rect class="cls-5" x="121.64" y="98.35" width="14.92" height="13.17"></rect><rect class="cls-5" x="122.41" y="130.43" width="13.11" height="13.11"></rect><rect class="cls-5" x="122.45" y="162.16" width="13.11" height="14.56"></rect><rect class="cls-5" x="163.65" y="98.35" width="14.92" height="13.17"></rect><rect class="cls-5" x="164.42" y="130.43" width="13.11" height="13.11"></rect><rect class="cls-5" x="164.46" y="162.16" width="13.11" height="14.56"></rect><g class="cls-6"><path class="cls-5" d="M246,246H54V54H246ZM98.1,107.1c-.73,0-1.16.08-1.6.08H63.12c-3.33,0-3.95.61-3.95,3.9V233c0,3.24.72,4,3.95,4H236.78c3.29,0,4-.7,4-3.91q0-61.06,0-122.12c0-3.07-.68-3.76-3.7-3.76H201.86V80.38c0-3.92-.43-4.36-4.26-4.36H181.12V67.46c0-3.91-.56-4.47-4.39-4.47H124c-4.93,0-5.19.26-5.19,5.17V76H101.66c-2.83,0-3.55.72-3.55,3.55q0,12.66,0,25.32Z"></path><path d="M98.1,107.1v-2.2q0-12.66,0-25.32c0-2.83.72-3.55,3.55-3.55h17.18V68.16c0-4.91.26-5.17,5.19-5.17h52.7c3.83,0,4.39.56,4.39,4.47V76H197.6c3.83,0,4.25.44,4.26,4.36v26.8h35.22c3,0,3.7.69,3.7,3.76q0,61.07,0,122.12c0,3.21-.71,3.91-4,3.91H63.12c-3.23,0-3.95-.72-3.95-4V111.08c0-3.29.62-3.9,3.95-3.9H96.5C96.94,107.18,97.37,107.13,98.1,107.1Zm98.46,124.58V81.32H103.48V231.61h27.77V194c0-3,.79-3.8,3.76-3.8h29.81c3.11,0,3.88.77,3.88,3.85q0,17.73,0,35.45v2.19Zm38.91,0V112.52H202.16V231.69Zm-137.63,0V112.52H64.52V231.69Zm38.72-.06h26.79V195.48H136.56ZM175.9,68.32H124.19v7.52h51.63c0-.62.08-1.11.08-1.6C175.91,72.31,175.9,70.38,175.9,68.32Z"></path><path class="cls-5" d="M196.56,231.68H168.71v-2.19q0-17.73,0-35.45c0-3.08-.77-3.85-3.88-3.85H135c-3,0-3.75.8-3.76,3.8v37.62H103.48V81.32h93.08ZM129,126.32c-1.81,0-3.62,0-5.43,0-3.1.07-5.25,2-5.35,5.1-.13,3.74-.13,7.49,0,11.23a5,5,0,0,0,5.05,5q5.61.13,11.24,0a5,5,0,0,0,5-5q.14-5.61,0-11.24a5,5,0,0,0-5.29-5.11C132.49,126.28,130.74,126.32,129,126.32Zm42.17,0c-1.81,0-3.62,0-5.43,0a5,5,0,0,0-5.31,5.29q-.1,5.34,0,10.68a5.11,5.11,0,0,0,5.42,5.41q5.23.08,10.49,0c3.12,0,5.3-2,5.42-5,.15-3.8.15-7.62,0-11.42-.13-3-2.31-4.85-5.32-4.92C174.66,126.29,172.91,126.32,171.16,126.32Zm-31.6-21.4c0-1.81,0-3.62,0-5.43a5.08,5.08,0,0,0-5.14-5.31q-5.52-.17-11,0a5.07,5.07,0,0,0-5.17,5.12c-.12,3.74-.13,7.49,0,11.23a5,5,0,0,0,5.25,5q5.43.1,10.86,0a5,5,0,0,0,5.22-5.18C139.61,108.54,139.56,106.73,139.56,104.92ZM171,115.53h0c1.81,0,3.62,0,5.43,0a5.06,5.06,0,0,0,5.3-5.15c.12-3.68.12-7.37,0-11a5,5,0,0,0-5.13-5.14c-3.68-.12-7.37-.11-11,0a5,5,0,0,0-5.16,5.27c-.07,3.68-.08,7.37,0,11a4.92,4.92,0,0,0,5,5C167.28,115.6,169.16,115.53,171,115.53Zm-31.48,53.68h0c0-1.81,0-3.62,0-5.43-.09-3.17-1.92-5.19-5.1-5.31-3.73-.14-7.49-.14-11.22,0a4.93,4.93,0,0,0-5,5c-.13,3.74-.13,7.5,0,11.24a4.94,4.94,0,0,0,5,5c3.8.13,7.62.14,11.42,0,2.94-.11,4.78-2.15,4.89-5.11C139.61,172.83,139.55,171,139.55,169.21Zm20.87-.05h0c0,1.81-.05,3.63,0,5.43a5,5,0,0,0,5,5.18c3.74.13,7.49.12,11.23,0a4.94,4.94,0,0,0,5.06-5q.21-5.7,0-11.42a4.74,4.74,0,0,0-4.58-4.82q-6.08-.25-12.16,0a4.73,4.73,0,0,0-4.55,4.82C160.35,165.29,160.42,167.23,160.42,169.16Z"></path><path class="cls-5" d="M235.47,231.69H202.16V112.52h33.31Zm-7.48-92c0-1.37,0-2.74,0-4.11a5.13,5.13,0,0,0-5.12-5.34c-2.73-.12-5.49-.11-8.23,0a5,5,0,0,0-5.06,5.16c-.07,2.68-.07,5.37,0,8,.07,3,1.87,5,4.81,5.18a80.36,80.36,0,0,0,8.78,0A5,5,0,0,0,228,143.4C228,142.15,228,140.9,228,139.65Zm0,65c0-1.31,0-2.62,0-3.93a5.15,5.15,0,0,0-5.13-5.32c-2.74-.1-5.49-.1-8.23,0a5,5,0,0,0-5.05,5.17c-.07,2.68-.07,5.37,0,8a4.94,4.94,0,0,0,5,5.18q4.22.17,8.42,0a5,5,0,0,0,5-5.22C228,207.29,228,206,228,204.67ZM209.55,172h0c0,1.43-.06,2.87,0,4.3a4.84,4.84,0,0,0,4.72,4.86c2.92.15,5.86.15,8.79,0a5,5,0,0,0,4.88-5.13c.08-2.68.07-5.36,0-8a5.09,5.09,0,0,0-5-5.21c-2.74-.13-5.49-.12-8.23,0a5.08,5.08,0,0,0-5.14,5.29C209.51,169.4,209.55,170.71,209.55,172Z"></path><path class="cls-5" d="M97.84,231.69H64.52V112.52H97.84Zm-7.45-92.22h0c0-1.31,0-2.62,0-3.93-.1-3.12-2-5.21-5.1-5.34-2.74-.12-5.49-.11-8.23,0a5.05,5.05,0,0,0-5.08,5q-.15,4.31,0,8.61a4.77,4.77,0,0,0,4.43,4.75,79.74,79.74,0,0,0,9.53,0,4.74,4.74,0,0,0,4.41-4.76C90.45,142.34,90.39,140.9,90.39,139.47Zm0,65.27h0c0-1.43,0-2.87,0-4.3a5,5,0,0,0-4.83-5c-2.93-.13-5.87-.14-8.79,0A5,5,0,0,0,72,200.33q-.17,4.3,0,8.61a4.89,4.89,0,0,0,4.76,4.85c3,.13,6,.13,9,0a4.83,4.83,0,0,0,4.64-4.74C90.46,207.62,90.39,206.18,90.39,204.74Zm0-32.56h0c0-1.37,0-2.75,0-4.12a5.06,5.06,0,0,0-5-5.25c-2.8-.13-5.61-.12-8.41,0a5,5,0,0,0-5,4.87c-.12,2.93-.12,5.87,0,8.79a4.78,4.78,0,0,0,4.51,4.68,88.18,88.18,0,0,0,9.34,0,4.76,4.76,0,0,0,4.5-4.67C90.46,175.05,90.38,173.61,90.38,172.18Z"></path><path class="cls-5" d="M136.56,231.63V195.48h26.79v36.15Z"></path><path class="cls-5" d="M175.9,68.32c0,2.06,0,4,0,5.92,0,.49-.05,1-.08,1.6H124.19V68.32Z"></path><path d="M129,126.32c1.75,0,3.5,0,5.25,0a5,5,0,0,1,5.29,5.11q.12,5.63,0,11.24a5,5,0,0,1-5,5q-5.62.13-11.24,0a5,5,0,0,1-5.05-5c-.13-3.74-.13-7.49,0-11.23.1-3.09,2.25-5,5.35-5.1C125.37,126.29,127.18,126.32,129,126.32Zm-5.54,16h10.8V131.62h-10.8Z"></path><path d="M171.16,126.32c1.75,0,3.5,0,5.25,0,3,.07,5.19,1.93,5.32,4.92.16,3.8.16,7.62,0,11.42-.12,3.07-2.3,5-5.42,5q-5.25.08-10.49,0a5.11,5.11,0,0,1-5.42-5.41q-.09-5.34,0-10.68a5,5,0,0,1,5.31-5.29C167.54,126.28,169.35,126.32,171.16,126.32Zm-5.51,16.06h10.83V131.69H165.65Z"></path><path d="M139.56,104.92c0,1.81.05,3.62,0,5.43a5,5,0,0,1-5.22,5.18q-5.43.1-10.86,0a5,5,0,0,1-5.25-5c-.14-3.74-.13-7.49,0-11.23a5.07,5.07,0,0,1,5.17-5.12q5.52-.17,11,0a5.08,5.08,0,0,1,5.14,5.31C139.6,101.3,139.56,103.11,139.56,104.92Zm-16.08,5.27h10.76V99.47H123.48Z"></path><path d="M171,115.53c-1.87,0-3.75.07-5.62,0a4.92,4.92,0,0,1-5-5c-.09-3.68-.08-7.37,0-11a5,5,0,0,1,5.16-5.27c3.68-.1,7.37-.11,11,0a5,5,0,0,1,5.13,5.14c.12,3.68.12,7.37,0,11a5.06,5.06,0,0,1-5.3,5.15c-1.81.06-3.62,0-5.43,0Zm-5.35-16.12v10.85h10.78V99.41Z"></path><path d="M139.55,169.21c0,1.81.06,3.62,0,5.43-.11,3-1.95,5-4.89,5.11-3.8.15-7.62.14-11.42,0a4.94,4.94,0,0,1-5-5c-.13-3.74-.13-7.5,0-11.24a4.93,4.93,0,0,1,5-5c3.73-.15,7.49-.15,11.22,0,3.18.12,5,2.14,5.1,5.31,0,1.81,0,3.62,0,5.43Zm-5.16,5.36c0-3.47,0-6.71,0-10a1.41,1.41,0,0,0-1-1c-3.29-.08-6.58,0-9.86,0v11Z"></path><path d="M160.42,169.16c0-1.93-.07-3.87,0-5.8a4.73,4.73,0,0,1,4.55-4.82q6.07-.25,12.16,0a4.74,4.74,0,0,1,4.58,4.82q.22,5.71,0,11.42a4.94,4.94,0,0,1-5.06,5c-3.74.12-7.49.13-11.23,0a5,5,0,0,1-5-5.18c-.06-1.8,0-3.62,0-5.43Zm16.07-5.44H165.68v10.84h10.81Z"></path><path d="M228,139.65c0,1.25,0,2.5,0,3.75a5,5,0,0,1-4.83,5.19,80.36,80.36,0,0,1-8.78,0c-2.94-.17-4.74-2.2-4.81-5.18-.06-2.68-.06-5.37,0-8a5,5,0,0,1,5.06-5.16c2.74-.11,5.5-.12,8.23,0a5.13,5.13,0,0,1,5.12,5.34C228,136.91,228,138.28,228,139.65Zm-5.28-4.13h-7.82v7.88h7.82Z"></path><path d="M228,204.67c0,1.31,0,2.62,0,3.93a5,5,0,0,1-5,5.22q-4.2.17-8.42,0a4.94,4.94,0,0,1-5-5.18c-.06-2.68-.06-5.37,0-8a5,5,0,0,1,5.05-5.17c2.74-.1,5.49-.1,8.23,0a5.15,5.15,0,0,1,5.13,5.32C228,202.05,228,203.36,228,204.67Zm-13.16,3.88h7.85v-7.81h-7.85Z"></path><path d="M209.55,172c0-1.31,0-2.62,0-3.93a5.08,5.08,0,0,1,5.14-5.29c2.74-.11,5.49-.12,8.23,0a5.09,5.09,0,0,1,5,5.21c.07,2.69.08,5.37,0,8a5,5,0,0,1-4.88,5.13c-2.93.13-5.87.13-8.79,0a4.84,4.84,0,0,1-4.72-4.86c-.08-1.43,0-2.87,0-4.3Zm5.28-4V176h7.82v-7.9Z"></path><path d="M90.39,139.47c0,1.43.06,2.87,0,4.3A4.74,4.74,0,0,1,86,148.53a79.74,79.74,0,0,1-9.53,0A4.77,4.77,0,0,1,72,143.78q-.17-4.31,0-8.61a5.05,5.05,0,0,1,5.08-5c2.74-.11,5.49-.12,8.23,0,3.08.13,5,2.22,5.1,5.34,0,1.31,0,2.62,0,3.93Zm-13.08-4v8h7.82v-8Z"></path><path d="M90.39,204.74c0,1.44.07,2.88,0,4.31a4.83,4.83,0,0,1-4.64,4.74c-3,.13-6,.13-9,0A4.89,4.89,0,0,1,72,208.94q-.15-4.31,0-8.61a5,5,0,0,1,4.76-4.88c2.92-.15,5.86-.14,8.79,0a5,5,0,0,1,4.83,5c.06,1.43,0,2.87,0,4.3Zm-13.12,3.81h7.87v-7.81H77.27Z"></path><path d="M90.38,172.18c0,1.43.08,2.87,0,4.3a4.76,4.76,0,0,1-4.5,4.67,88.18,88.18,0,0,1-9.34,0A4.78,4.78,0,0,1,72,176.47c-.13-2.92-.13-5.86,0-8.79a5,5,0,0,1,5-4.87c2.8-.12,5.61-.13,8.41,0a5.06,5.06,0,0,1,5,5.25c0,1.37,0,2.75,0,4.12Zm-13.09-4.09V176h7.87v-7.86Z"></path><path class="cls-5" d="M123.45,142.36V131.62h10.8v10.74Z"></path><path class="cls-5" d="M165.65,142.38V131.69h10.83v10.69Z"></path><path class="cls-5" d="M123.48,110.19V99.47h10.76v10.72Z"></path><path class="cls-5" d="M165.68,99.41h10.78v10.85H165.68Z"></path><path class="cls-5" d="M134.39,174.57H123.53v-11c3.28,0,6.57,0,9.86,0a1.41,1.41,0,0,1,1,1C134.42,167.86,134.39,171.1,134.39,174.57Z"></path><path class="cls-5" d="M176.49,163.72v10.84H165.68V163.72Z"></path><path class="cls-5" d="M222.71,135.52v7.88h-7.82v-7.88Z"></path><path class="cls-5" d="M214.83,208.55v-7.81h7.85v7.81Z"></path><path class="cls-5" d="M214.83,168.07h7.82V176h-7.82Z"></path><path class="cls-5" d="M77.31,135.46h7.82v8H77.31Z"></path><path class="cls-5" d="M77.27,208.55v-7.81h7.87v7.81Z"></path><path class="cls-5" d="M77.29,168.09h7.87V176H77.29Z"></path></g><polygon class="cls-7" points="206.08 223.52 206.08 109.57 198.23 109.57 198.23 223.52 101.72 223.52 101.72 109.57 93.87 109.57 93.87 223.52 59.51 223.52 59.51 235.54 235.47 235.54 235.47 223.52 206.08 223.52"></polygon></g></g></svg>