<svg xmlns="http://www.w3.org/2000/svg" xmlns:xlink="http://www.w3.org/1999/xlink" id="Layer_1" data-name="Layer 1" viewBox="0 0 300 300"><defs><style>.cls-1{fill:#91f086;}.cls-2{fill:#ffee50;}.cls-3{fill:#fff;}.cls-4{fill:#f1f2f2;}.cls-5{fill:#11823b;}.cls-6{fill:#414042;}.cls-7{opacity:0.1;}</style></defs><title>1</title><rect class="cls-1" x="80.36" y="62.32" width="139.68" height="158.68" rx="8.78"></rect><circle class="cls-2" cx="108.44" cy="197.96" r="9.36"></circle><circle class="cls-2" cx="190.88" cy="197.96" r="9.36"></circle><rect class="cls-3" x="75.32" y="92.12" width="144.72" height="84.24"></rect><polygon class="cls-4" points="86.84 172.04 118.88 92.12 139.4 92.12 109.16 174.56 86.84 172.04"></polygon><path class="cls-5" d="M71,99.32h6.12a0,0,0,0,1,0,0v34.92a0,0,0,0,1,0,0H71a5,5,0,0,1-5-5V104.36A5,5,0,0,1,71,99.32Z"></path><path class="cls-5" d="M228.32,99.32h6.12a0,0,0,0,1,0,0v34.92a0,0,0,0,1,0,0h-6.12a5,5,0,0,1-5-5V104.36A5,5,0,0,1,228.32,99.32Z" transform="translate(457.72 233.56) rotate(180)"></path><polygon class="cls-4" points="157.4 172.04 189.44 92.12 209.96 92.12 179.72 174.56 157.4 172.04"></polygon><rect class="cls-6" x="183.68" y="222.8" width="21.96" height="13.32"></rect><rect class="cls-6" x="96.2" y="222.8" width="19.08" height="13.32"></rect><image width="512" height="512" transform="translate(54 54) scale(0.38)"></image><rect class="cls-7" x="71.54" y="100.76" width="3.78" height="32.58"></rect><rect class="cls-7" x="223.28" y="100.76" width="3.78" height="32.58"></rect><rect class="cls-7" x="146.6" y="147.56" width="7.2" height="139.68" transform="translate(367.6 67.2) rotate(90)"></rect><rect class="cls-7" x="101.78" y="212.54" width="7.2" height="24.84" transform="translate(330.34 119.58) rotate(90)"></rect><rect class="cls-7" x="189.62" y="212.54" width="7.2" height="24.84" transform="translate(418.18 31.74) rotate(90)"></rect></svg>